STARTFONT 2.1
FONT -FontForge-Tangerine-Book-R-Normal--8-80-72-72-P-29-ISO10646-1
SIZE 8 72 72
FONTBOUNDINGBOX 14 8 -3 -2
COMMENT "Generated by fontforge, http://fontforge.sourceforge.net"
COMMENT "Copyright (c) 2010 by Toshi Omagari. All rights reserved."
STARTPROPERTIES 39
FOUNDRY "FontForge"
FAMILY_NAME "Tangerine"
WEIGHT_NAME "Book"
SLANT "R"
SETWIDTH_NAME "Normal"
ADD_STYLE_NAME ""
PIXEL_SIZE 8
POINT_SIZE 80
RESOLUTION_X 72
RESOLUTION_Y 72
SPACING "P"
AVERAGE_WIDTH 29
CHARSET_REGISTRY "ISO10646"
CHARSET_ENCODING "1"
FONTNAME_REGISTRY ""
CHARSET_COLLECTIONS "ISO10646-1"
FONT_NAME "Tangerine-Regular"
FACE_NAME "Tangerine Regular"
COPYRIGHT "Copyright (c) 2010 by Toshi Omagari. All rights reserved."
FONT_VERSION "1.3"
FONT_ASCENT 6
FONT_DESCENT 2
UNDERLINE_POSITION -1
UNDERLINE_THICKNESS 1
X_HEIGHT 1
CAP_HEIGHT 4
RAW_ASCENT 750
RAW_DESCENT 250
NORM_SPACE 1
RELATIVE_WEIGHT 40
RELATIVE_SETWIDTH 50
SUPERSCRIPT_X 0
SUPERSCRIPT_Y 3
SUPERSCRIPT_SIZE 5
SUBSCRIPT_X 0
SUBSCRIPT_Y 1
SUBSCRIPT_SIZE 5
AVG_LOWERCASE_WIDTH 19
AVG_UPPERCASE_WIDTH 56
ENDPROPERTIES
CHARS 233
STARTCHAR space
ENCODING 32
SWIDTH 150 0
DWIDTH 1 0
BBX 1 1 0 0
BITMAP
00
ENDCHAR
STARTCHAR exclam
ENCODING 33
SWIDTH 189 0
DWIDTH 2 0
BBX 3 4 0 0
BITMAP
60
40
80
80
ENDCHAR
STARTCHAR quotedbl
ENCODING 34
SWIDTH 214 0
DWIDTH 2 0
BBX 2 1 0 2
BITMAP
C0
ENDCHAR
STARTCHAR numbersign
ENCODING 35
SWIDTH 289 0
DWIDTH 2 0
BBX 2 3 0 0
BITMAP
40
C0
80
ENDCHAR
STARTCHAR dollar
ENCODING 36
SWIDTH 269 0
DWIDTH 2 0
BBX 2 4 0 -1
BITMAP
40
80
C0
80
ENDCHAR
STARTCHAR percent
ENCODING 37
SWIDTH 388 0
DWIDTH 3 0
BBX 3 4 0 -1
BITMAP
A0
A0
E0
80
ENDCHAR
STARTCHAR ampersand
ENCODING 38
SWIDTH 507 0
DWIDTH 4 0
BBX 4 4 0 0
BITMAP
40
C0
F0
F0
ENDCHAR
STARTCHAR quotesingle
ENCODING 39
SWIDTH 120 0
DWIDTH 1 0
BBX 1 1 0 2
BITMAP
80
ENDCHAR
STARTCHAR parenleft
ENCODING 40
SWIDTH 250 0
DWIDTH 2 0
BBX 2 6 1 -1
BITMAP
C0
80
80
80
80
80
ENDCHAR
STARTCHAR parenright
ENCODING 41
SWIDTH 276 0
DWIDTH 2 0
BBX 2 6 0 -1
BITMAP
40
40
40
40
80
80
ENDCHAR
STARTCHAR asterisk
ENCODING 42
SWIDTH 188 0
DWIDTH 2 0
BBX 2 1 0 2
BITMAP
C0
ENDCHAR
STARTCHAR plus
ENCODING 43
SWIDTH 301 0
DWIDTH 2 0
BBX 2 2 0 0
BITMAP
C0
C0
ENDCHAR
STARTCHAR comma
ENCODING 44
SWIDTH 112 0
DWIDTH 1 0
BBX 1 2 0 -1
BITMAP
80
80
ENDCHAR
STARTCHAR hyphen
ENCODING 45
SWIDTH 245 0
DWIDTH 2 0
BBX 2 1 0 1
BITMAP
C0
ENDCHAR
STARTCHAR period
ENCODING 46
SWIDTH 112 0
DWIDTH 1 0
BBX 1 1 0 0
BITMAP
80
ENDCHAR
STARTCHAR slash
ENCODING 47
SWIDTH 210 0
DWIDTH 2 0
BBX 3 5 0 0
BITMAP
20
40
40
80
80
ENDCHAR
STARTCHAR zero
ENCODING 48
SWIDTH 349 0
DWIDTH 3 0
BBX 3 3 0 0
BITMAP
40
A0
C0
ENDCHAR
STARTCHAR one
ENCODING 49
SWIDTH 189 0
DWIDTH 2 0
BBX 2 3 0 0
BITMAP
40
80
80
ENDCHAR
STARTCHAR two
ENCODING 50
SWIDTH 277 0
DWIDTH 2 0
BBX 2 3 0 0
BITMAP
40
40
C0
ENDCHAR
STARTCHAR three
ENCODING 51
SWIDTH 253 0
DWIDTH 2 0
BBX 2 4 0 -1
BITMAP
80
40
C0
C0
ENDCHAR
STARTCHAR four
ENCODING 52
SWIDTH 363 0
DWIDTH 3 0
BBX 4 4 0 0
BITMAP
30
20
E0
40
ENDCHAR
STARTCHAR five
ENCODING 53
SWIDTH 250 0
DWIDTH 2 0
BBX 3 4 -1 -1
BITMAP
20
40
20
C0
ENDCHAR
STARTCHAR six
ENCODING 54
SWIDTH 296 0
DWIDTH 2 0
BBX 4 4 0 0
BITMAP
60
90
C0
C0
ENDCHAR
STARTCHAR seven
ENCODING 55
SWIDTH 326 0
DWIDTH 3 0
BBX 3 4 0 -1
BITMAP
60
C0
40
80
ENDCHAR
STARTCHAR eight
ENCODING 56
SWIDTH 305 0
DWIDTH 2 0
BBX 3 4 0 0
BITMAP
60
60
C0
C0
ENDCHAR
STARTCHAR nine
ENCODING 57
SWIDTH 304 0
DWIDTH 2 0
BBX 2 4 0 -1
BITMAP
40
C0
C0
C0
ENDCHAR
STARTCHAR colon
ENCODING 58
SWIDTH 156 0
DWIDTH 1 0
BBX 1 1 0 0
BITMAP
80
ENDCHAR
STARTCHAR semicolon
ENCODING 59
SWIDTH 156 0
DWIDTH 1 0
BBX 1 2 0 -1
BITMAP
80
80
ENDCHAR
STARTCHAR less
ENCODING 60
SWIDTH 301 0
DWIDTH 2 0
BBX 2 2 0 0
BITMAP
40
C0
ENDCHAR
STARTCHAR equal
ENCODING 61
SWIDTH 301 0
DWIDTH 2 0
BBX 2 1 0 1
BITMAP
C0
ENDCHAR
STARTCHAR greater
ENCODING 62
SWIDTH 301 0
DWIDTH 2 0
BBX 2 1 0 1
BITMAP
C0
ENDCHAR
STARTCHAR question
ENCODING 63
SWIDTH 285 0
DWIDTH 2 0
BBX 3 4 0 0
BITMAP
E0
20
C0
80
ENDCHAR
STARTCHAR at
ENCODING 64
SWIDTH 492 0
DWIDTH 4 0
BBX 4 4 0 -1
BITMAP
E0
F0
E0
60
ENDCHAR
STARTCHAR A
ENCODING 65
SWIDTH 996 0
DWIDTH 8 0
BBX 8 5 0 0
BITMAP
1F
12
06
8A
F3
ENDCHAR
STARTCHAR B
ENCODING 66
SWIDTH 638 0
DWIDTH 5 0
BBX 5 5 0 0
BITMAP
78
28
38
48
F8
ENDCHAR
STARTCHAR C
ENCODING 67
SWIDTH 557 0
DWIDTH 4 0
BBX 4 5 1 0
BITMAP
F0
80
80
80
E0
ENDCHAR
STARTCHAR D
ENCODING 68
SWIDTH 799 0
DWIDTH 6 0
BBX 6 5 0 0
BITMAP
7C
14
14
24
FC
ENDCHAR
STARTCHAR E
ENCODING 69
SWIDTH 494 0
DWIDTH 4 0
BBX 4 5 0 0
BITMAP
70
20
C0
80
F0
ENDCHAR
STARTCHAR F
ENCODING 70
SWIDTH 626 0
DWIDTH 5 0
BBX 7 5 0 0
BITMAP
3E
08
10
90
E0
ENDCHAR
STARTCHAR G
ENCODING 71
SWIDTH 571 0
DWIDTH 5 0
BBX 6 6 0 -1
BITMAP
3C
40
40
50
B0
E0
ENDCHAR
STARTCHAR H
ENCODING 72
SWIDTH 865 0
DWIDTH 7 0
BBX 9 5 0 0
BITMAP
3B80
5200
1400
EE00
E600
ENDCHAR
STARTCHAR I
ENCODING 73
SWIDTH 554 0
DWIDTH 4 0
BBX 6 5 0 0
BITMAP
1C
28
30
90
E0
ENDCHAR
STARTCHAR J
ENCODING 74
SWIDTH 634 0
DWIDTH 5 0
BBX 7 6 0 -1
BITMAP
0E
18
18
18
D0
E0
ENDCHAR
STARTCHAR K
ENCODING 75
SWIDTH 936 0
DWIDTH 7 0
BBX 8 5 0 0
BITMAP
3B
4C
18
98
E6
ENDCHAR
STARTCHAR L
ENCODING 76
SWIDTH 657 0
DWIDTH 5 0
BBX 6 5 0 0
BITMAP
1C
10
20
20
F8
ENDCHAR
STARTCHAR M
ENCODING 77
SWIDTH 1219 0
DWIDTH 10 0
BBX 10 5 0 0
BITMAP
1FC0
2380
8380
8E80
F4C0
ENDCHAR
STARTCHAR N
ENCODING 78
SWIDTH 990 0
DWIDTH 8 0
BBX 10 5 0 0
BITMAP
38C0
0D00
0B00
9100
E200
ENDCHAR
STARTCHAR O
ENCODING 79
SWIDTH 606 0
DWIDTH 5 0
BBX 4 5 1 0
BITMAP
F0
90
90
90
E0
ENDCHAR
STARTCHAR P
ENCODING 80
SWIDTH 783 0
DWIDTH 6 0
BBX 7 5 0 0
BITMAP
3E
2A
12
9C
E0
ENDCHAR
STARTCHAR Q
ENCODING 81
SWIDTH 563 0
DWIDTH 5 0
BBX 6 6 0 -1
BITMAP
78
88
88
90
60
FC
ENDCHAR
STARTCHAR R
ENCODING 82
SWIDTH 854 0
DWIDTH 7 0
BBX 7 5 0 0
BITMAP
3C
16
08
98
E6
ENDCHAR
STARTCHAR S
ENCODING 83
SWIDTH 480 0
DWIDTH 4 0
BBX 4 5 0 0
BITMAP
70
20
20
90
E0
ENDCHAR
STARTCHAR T
ENCODING 84
SWIDTH 577 0
DWIDTH 5 0
BBX 6 5 0 0
BITMAP
7C
48
10
90
E0
ENDCHAR
STARTCHAR U
ENCODING 85
SWIDTH 752 0
DWIDTH 6 0
BBX 6 5 1 0
BITMAP
EC
C8
88
90
F8
ENDCHAR
STARTCHAR V
ENCODING 86
SWIDTH 661 0
DWIDTH 5 0
BBX 5 5 1 0
BITMAP
D8
A8
30
30
40
ENDCHAR
STARTCHAR W
ENCODING 87
SWIDTH 822 0
DWIDTH 7 0
BBX 6 5 1 0
BITMAP
D4
F4
74
58
50
ENDCHAR
STARTCHAR X
ENCODING 88
SWIDTH 813 0
DWIDTH 7 0
BBX 7 5 0 0
BITMAP
1E
30
10
B0
CC
ENDCHAR
STARTCHAR Y
ENCODING 89
SWIDTH 662 0
DWIDTH 5 0
BBX 7 6 0 -1
BITMAP
32
24
24
F8
90
E0
ENDCHAR
STARTCHAR Z
ENCODING 90
SWIDTH 625 0
DWIDTH 5 0
BBX 6 5 0 0
BITMAP
7C
10
20
40
F8
ENDCHAR
STARTCHAR bracketleft
ENCODING 91
SWIDTH 318 0
DWIDTH 3 0
BBX 2 6 1 -1
BITMAP
C0
80
80
80
80
80
ENDCHAR
STARTCHAR backslash
ENCODING 92
SWIDTH 212 0
DWIDTH 2 0
BBX 1 5 0 0
BITMAP
80
80
80
80
80
ENDCHAR
STARTCHAR bracketright
ENCODING 93
SWIDTH 339 0
DWIDTH 3 0
BBX 3 6 0 -1
BITMAP
20
20
40
40
40
C0
ENDCHAR
STARTCHAR asciicircum
ENCODING 94
SWIDTH 272 0
DWIDTH 2 0
BBX 2 2 0 1
BITMAP
40
C0
ENDCHAR
STARTCHAR underscore
ENCODING 95
SWIDTH 356 0
DWIDTH 3 0
BBX 3 1 0 -1
BITMAP
E0
ENDCHAR
STARTCHAR grave
ENCODING 96
SWIDTH 155 0
DWIDTH 1 0
BBX 1 1 0 2
BITMAP
80
ENDCHAR
STARTCHAR a
ENCODING 97
SWIDTH 294 0
DWIDTH 2 0
BBX 2 2 0 0
BITMAP
C0
C0
ENDCHAR
STARTCHAR b
ENCODING 98
SWIDTH 247 0
DWIDTH 2 0
BBX 4 6 0 0
BITMAP
30
40
80
80
C0
80
ENDCHAR
STARTCHAR c
ENCODING 99
SWIDTH 203 0
DWIDTH 2 0
BBX 2 2 0 0
BITMAP
40
80
ENDCHAR
STARTCHAR d
ENCODING 100
SWIDTH 285 0
DWIDTH 2 0
BBX 5 6 0 0
BITMAP
18
20
20
40
C0
C0
ENDCHAR
STARTCHAR e
ENCODING 101
SWIDTH 206 0
DWIDTH 2 0
BBX 2 2 0 0
BITMAP
40
80
ENDCHAR
STARTCHAR f
ENCODING 102
SWIDTH 156 0
DWIDTH 1 0
BBX 6 8 -2 -2
BITMAP
0C
10
10
20
30
20
40
80
ENDCHAR
STARTCHAR g
ENCODING 103
SWIDTH 210 0
DWIDTH 2 0
BBX 3 4 -1 -2
BITMAP
60
40
C0
C0
ENDCHAR
STARTCHAR h
ENCODING 104
SWIDTH 292 0
DWIDTH 2 0
BBX 4 6 0 0
BITMAP
30
40
40
80
C0
C0
ENDCHAR
STARTCHAR i
ENCODING 105
SWIDTH 149 0
DWIDTH 1 0
BBX 2 3 0 0
BITMAP
C0
80
80
ENDCHAR
STARTCHAR j
ENCODING 106
SWIDTH 136 0
DWIDTH 1 0
BBX 4 5 -2 -2
BITMAP
30
60
20
40
80
ENDCHAR
STARTCHAR k
ENCODING 107
SWIDTH 259 0
DWIDTH 2 0
BBX 4 6 0 0
BITMAP
30
40
80
80
C0
C0
ENDCHAR
STARTCHAR l
ENCODING 108
SWIDTH 134 0
DWIDTH 1 0
BBX 4 6 0 0
BITMAP
30
40
80
80
80
80
ENDCHAR
STARTCHAR m
ENCODING 109
SWIDTH 413 0
DWIDTH 3 0
BBX 3 2 0 0
BITMAP
E0
E0
ENDCHAR
STARTCHAR n
ENCODING 110
SWIDTH 291 0
DWIDTH 2 0
BBX 2 2 0 0
BITMAP
C0
C0
ENDCHAR
STARTCHAR o
ENCODING 111
SWIDTH 225 0
DWIDTH 2 0
BBX 2 2 0 0
BITMAP
40
80
ENDCHAR
STARTCHAR p
ENCODING 112
SWIDTH 261 0
DWIDTH 2 0
BBX 2 4 0 -2
BITMAP
C0
C0
80
80
ENDCHAR
STARTCHAR q
ENCODING 113
SWIDTH 269 0
DWIDTH 2 0
BBX 2 4 0 -2
BITMAP
C0
C0
80
80
ENDCHAR
STARTCHAR r
ENCODING 114
SWIDTH 195 0
DWIDTH 2 0
BBX 2 2 0 0
BITMAP
C0
80
ENDCHAR
STARTCHAR s
ENCODING 115
SWIDTH 188 0
DWIDTH 2 0
BBX 1 2 0 0
BITMAP
80
80
ENDCHAR
STARTCHAR t
ENCODING 116
SWIDTH 171 0
DWIDTH 1 0
BBX 2 3 0 0
BITMAP
C0
C0
80
ENDCHAR
STARTCHAR u
ENCODING 117
SWIDTH 299 0
DWIDTH 2 0
BBX 2 2 0 0
BITMAP
C0
C0
ENDCHAR
STARTCHAR v
ENCODING 118
SWIDTH 271 0
DWIDTH 2 0
BBX 2 2 0 0
BITMAP
C0
80
ENDCHAR
STARTCHAR w
ENCODING 119
SWIDTH 369 0
DWIDTH 3 0
BBX 3 2 0 0
BITMAP
E0
40
ENDCHAR
STARTCHAR x
ENCODING 120
SWIDTH 263 0
DWIDTH 2 0
BBX 2 2 0 0
BITMAP
C0
C0
ENDCHAR
STARTCHAR y
ENCODING 121
SWIDTH 280 0
DWIDTH 2 0
BBX 3 4 -1 -2
BITMAP
E0
60
40
C0
ENDCHAR
STARTCHAR z
ENCODING 122
SWIDTH 238 0
DWIDTH 2 0
BBX 2 2 0 0
BITMAP
C0
C0
ENDCHAR
STARTCHAR braceleft
ENCODING 123
SWIDTH 291 0
DWIDTH 2 0
BBX 2 6 1 -1
BITMAP
C0
80
80
80
80
80
ENDCHAR
STARTCHAR bar
ENCODING 124
SWIDTH 162 0
DWIDTH 1 0
BBX 1 7 0 -2
BITMAP
80
80
80
80
80
80
80
ENDCHAR
STARTCHAR braceright
ENCODING 125
SWIDTH 285 0
DWIDTH 2 0
BBX 2 6 0 -1
BITMAP
40
40
40
40
80
80
ENDCHAR
STARTCHAR asciitilde
ENCODING 126
SWIDTH 383 0
DWIDTH 3 0
BBX 3 1 0 1
BITMAP
E0
ENDCHAR
STARTCHAR space.dup1
ENCODING 160
SWIDTH 150 0
DWIDTH 1 0
BBX 1 1 0 0
BITMAP
00
ENDCHAR
STARTCHAR exclamdown
ENCODING 161
SWIDTH 189 0
DWIDTH 2 0
BBX 2 3 -1 -2
BITMAP
40
80
80
ENDCHAR
STARTCHAR cent
ENCODING 162
SWIDTH 194 0
DWIDTH 2 0
BBX 2 4 0 -1
BITMAP
C0
C0
80
80
ENDCHAR
STARTCHAR sterling
ENCODING 163
SWIDTH 344 0
DWIDTH 3 0
BBX 3 3 0 0
BITMAP
40
60
E0
ENDCHAR
STARTCHAR currency
ENCODING 164
SWIDTH 344 0
DWIDTH 3 0
BBX 3 3 0 0
BITMAP
A0
C0
C0
ENDCHAR
STARTCHAR yen
ENCODING 165
SWIDTH 309 0
DWIDTH 2 0
BBX 3 3 0 0
BITMAP
C0
A0
C0
ENDCHAR
STARTCHAR brokenbar
ENCODING 166
SWIDTH 162 0
DWIDTH 1 0
BBX 1 7 0 -2
BITMAP
80
80
00
00
80
80
80
ENDCHAR
STARTCHAR section
ENCODING 167
SWIDTH 395 0
DWIDTH 3 0
BBX 4 6 0 -2
BITMAP
70
C0
40
40
E0
C0
ENDCHAR
STARTCHAR dieresis
ENCODING 168
SWIDTH 174 0
DWIDTH 1 0
BBX 1 1 0 2
BITMAP
80
ENDCHAR
STARTCHAR copyright
ENCODING 169
SWIDTH 331 0
DWIDTH 3 0
BBX 2 2 0 1
BITMAP
C0
C0
ENDCHAR
STARTCHAR ordfeminine
ENCODING 170
SWIDTH 226 0
DWIDTH 2 0
BBX 2 2 0 1
BITMAP
C0
80
ENDCHAR
STARTCHAR guillemotleft
ENCODING 171
SWIDTH 289 0
DWIDTH 2 0
BBX 2 2 0 0
BITMAP
C0
40
ENDCHAR
STARTCHAR logicalnot
ENCODING 172
SWIDTH 265 0
DWIDTH 2 0
BBX 2 1 0 1
BITMAP
C0
ENDCHAR
STARTCHAR registered
ENCODING 174
SWIDTH 331 0
DWIDTH 3 0
BBX 2 2 0 1
BITMAP
C0
40
ENDCHAR
STARTCHAR degree
ENCODING 176
SWIDTH 104 0
DWIDTH 1 0
BBX 1 1 1 2
BITMAP
80
ENDCHAR
STARTCHAR plusminus
ENCODING 177
SWIDTH 301 0
DWIDTH 2 0
BBX 2 2 0 0
BITMAP
C0
C0
ENDCHAR
STARTCHAR twosuperior
ENCODING 178
SWIDTH 215 0
DWIDTH 2 0
BBX 2 2 0 1
BITMAP
80
C0
ENDCHAR
STARTCHAR threesuperior
ENCODING 179
SWIDTH 190 0
DWIDTH 2 0
BBX 1 2 0 1
BITMAP
80
80
ENDCHAR
STARTCHAR acute
ENCODING 180
SWIDTH 157 0
DWIDTH 1 0
BBX 1 1 0 2
BITMAP
80
ENDCHAR
STARTCHAR mu
ENCODING 181
SWIDTH 324 0
DWIDTH 3 0
BBX 3 3 0 -1
BITMAP
C0
C0
A0
ENDCHAR
STARTCHAR paragraph
ENCODING 182
SWIDTH 392 0
DWIDTH 3 0
BBX 4 5 -1 -2
BITMAP
10
30
20
60
C0
ENDCHAR
STARTCHAR periodcentered
ENCODING 183
SWIDTH 112 0
DWIDTH 1 0
BBX 1 1 0 1
BITMAP
80
ENDCHAR
STARTCHAR cedilla
ENCODING 184
SWIDTH 115 0
DWIDTH 1 0
BBX 1 1 0 -1
BITMAP
80
ENDCHAR
STARTCHAR onesuperior
ENCODING 185
SWIDTH 174 0
DWIDTH 1 0
BBX 1 2 0 1
BITMAP
80
80
ENDCHAR
STARTCHAR ordmasculine
ENCODING 186
SWIDTH 178 0
DWIDTH 1 0
BBX 1 2 0 1
BITMAP
80
80
ENDCHAR
STARTCHAR guillemotright
ENCODING 187
SWIDTH 276 0
DWIDTH 2 0
BBX 2 2 0 0
BITMAP
C0
80
ENDCHAR
STARTCHAR onequarter
ENCODING 188
SWIDTH 435 0
DWIDTH 3 0
BBX 3 3 0 0
BITMAP
60
E0
A0
ENDCHAR
STARTCHAR onehalf
ENCODING 189
SWIDTH 434 0
DWIDTH 3 0
BBX 3 3 0 0
BITMAP
60
A0
E0
ENDCHAR
STARTCHAR threequarters
ENCODING 190
SWIDTH 476 0
DWIDTH 4 0
BBX 4 3 0 0
BITMAP
20
50
E0
ENDCHAR
STARTCHAR questiondown
ENCODING 191
SWIDTH 285 0
DWIDTH 2 0
BBX 2 3 0 -2
BITMAP
40
80
80
ENDCHAR
STARTCHAR Agrave
ENCODING 192
SWIDTH 996 0
DWIDTH 8 0
BBX 8 6 0 0
BITMAP
01
1F
12
06
8A
F3
ENDCHAR
STARTCHAR Aacute
ENCODING 193
SWIDTH 996 0
DWIDTH 8 0
BBX 8 6 0 0
BITMAP
01
1F
12
06
8A
F3
ENDCHAR
STARTCHAR Acircumflex
ENCODING 194
SWIDTH 996 0
DWIDTH 8 0
BBX 8 6 0 0
BITMAP
03
1D
12
06
8A
F3
ENDCHAR
STARTCHAR Atilde
ENCODING 195
SWIDTH 996 0
DWIDTH 8 0
BBX 9 6 0 0
BITMAP
0380
1D00
1200
0600
8A00
F300
ENDCHAR
STARTCHAR Adieresis
ENCODING 196
SWIDTH 996 0
DWIDTH 8 0
BBX 8 6 0 0
BITMAP
01
1F
12
06
8A
F3
ENDCHAR
STARTCHAR Aring
ENCODING 197
SWIDTH 996 0
DWIDTH 8 0
BBX 8 6 0 0
BITMAP
01
1F
12
06
8A
F3
ENDCHAR
STARTCHAR AE
ENCODING 198
SWIDTH 1271 0
DWIDTH 10 0
BBX 11 5 0 0
BITMAP
1FE0
1280
0700
8A00
F3C0
ENDCHAR
STARTCHAR Ccedilla
ENCODING 199
SWIDTH 557 0
DWIDTH 4 0
BBX 4 6 1 -1
BITMAP
F0
80
80
80
A0
40
ENDCHAR
STARTCHAR Egrave
ENCODING 200
SWIDTH 463 0
DWIDTH 4 0
BBX 4 6 0 0
BITMAP
20
50
40
A0
80
F0
ENDCHAR
STARTCHAR Eacute
ENCODING 201
SWIDTH 463 0
DWIDTH 4 0
BBX 4 6 0 0
BITMAP
30
50
40
A0
80
F0
ENDCHAR
STARTCHAR Ecircumflex
ENCODING 202
SWIDTH 463 0
DWIDTH 4 0
BBX 4 6 0 0
BITMAP
10
70
40
A0
80
F0
ENDCHAR
STARTCHAR Edieresis
ENCODING 203
SWIDTH 463 0
DWIDTH 4 0
BBX 4 6 0 0
BITMAP
10
70
40
A0
80
F0
ENDCHAR
STARTCHAR Igrave
ENCODING 204
SWIDTH 514 0
DWIDTH 4 0
BBX 6 6 0 0
BITMAP
08
1C
30
30
90
E0
ENDCHAR
STARTCHAR Iacute
ENCODING 205
SWIDTH 514 0
DWIDTH 4 0
BBX 6 6 0 0
BITMAP
08
1C
30
30
90
E0
ENDCHAR
STARTCHAR Icircumflex
ENCODING 206
SWIDTH 514 0
DWIDTH 4 0
BBX 6 6 0 0
BITMAP
18
1C
30
30
90
E0
ENDCHAR
STARTCHAR Idieresis
ENCODING 207
SWIDTH 514 0
DWIDTH 4 0
BBX 6 6 0 0
BITMAP
08
1C
30
30
90
E0
ENDCHAR
STARTCHAR Eth
ENCODING 208
SWIDTH 800 0
DWIDTH 6 0
BBX 6 5 0 0
BITMAP
7C
14
14
2C
FC
ENDCHAR
STARTCHAR Ntilde
ENCODING 209
SWIDTH 796 0
DWIDTH 6 0
BBX 10 6 -1 0
BITMAP
0700
79C0
1500
1600
9200
E200
ENDCHAR
STARTCHAR Ograve
ENCODING 210
SWIDTH 608 0
DWIDTH 5 0
BBX 4 6 1 0
BITMAP
20
D0
90
90
90
E0
ENDCHAR
STARTCHAR Oacute
ENCODING 211
SWIDTH 608 0
DWIDTH 5 0
BBX 4 6 1 0
BITMAP
20
D0
90
90
90
E0
ENDCHAR
STARTCHAR Ocircumflex
ENCODING 212
SWIDTH 608 0
DWIDTH 5 0
BBX 4 6 1 0
BITMAP
60
90
90
90
90
E0
ENDCHAR
STARTCHAR Otilde
ENCODING 213
SWIDTH 608 0
DWIDTH 5 0
BBX 4 6 1 0
BITMAP
30
D0
90
90
90
E0
ENDCHAR
STARTCHAR Odieresis
ENCODING 214
SWIDTH 608 0
DWIDTH 5 0
BBX 4 6 1 0
BITMAP
60
90
90
90
90
E0
ENDCHAR
STARTCHAR multiply
ENCODING 215
SWIDTH 301 0
DWIDTH 2 0
BBX 2 2 0 0
BITMAP
C0
C0
ENDCHAR
STARTCHAR Oslash
ENCODING 216
SWIDTH 605 0
DWIDTH 5 0
BBX 4 5 1 0
BITMAP
F0
F0
D0
90
E0
ENDCHAR
STARTCHAR Ugrave
ENCODING 217
SWIDTH 717 0
DWIDTH 6 0
BBX 7 6 0 0
BITMAP
08
F6
C4
C8
58
6C
ENDCHAR
STARTCHAR Uacute
ENCODING 218
SWIDTH 717 0
DWIDTH 6 0
BBX 7 6 0 0
BITMAP
0C
F6
C4
C8
58
6C
ENDCHAR
STARTCHAR Ucircumflex
ENCODING 219
SWIDTH 718 0
DWIDTH 6 0
BBX 7 6 0 0
BITMAP
18
E6
C4
C8
58
6C
ENDCHAR
STARTCHAR Udieresis
ENCODING 220
SWIDTH 718 0
DWIDTH 6 0
BBX 7 6 0 0
BITMAP
08
F6
C4
C8
58
6C
ENDCHAR
STARTCHAR Yacute
ENCODING 221
SWIDTH 662 0
DWIDTH 5 0
BBX 7 7 0 -1
BITMAP
0C
32
24
24
F8
90
E0
ENDCHAR
STARTCHAR Thorn
ENCODING 222
SWIDTH 745 0
DWIDTH 6 0
BBX 6 5 0 0
BITMAP
0C
3C
14
98
E0
ENDCHAR
STARTCHAR germandbls
ENCODING 223
SWIDTH 304 0
DWIDTH 2 0
BBX 7 8 -3 -2
BITMAP
02
0E
14
18
08
18
20
C0
ENDCHAR
STARTCHAR agrave
ENCODING 224
SWIDTH 294 0
DWIDTH 2 0
BBX 2 3 0 0
BITMAP
40
C0
C0
ENDCHAR
STARTCHAR aacute
ENCODING 225
SWIDTH 294 0
DWIDTH 2 0
BBX 2 3 0 0
BITMAP
40
C0
C0
ENDCHAR
STARTCHAR acircumflex
ENCODING 226
SWIDTH 294 0
DWIDTH 2 0
BBX 2 3 0 0
BITMAP
40
C0
C0
ENDCHAR
STARTCHAR atilde
ENCODING 227
SWIDTH 294 0
DWIDTH 2 0
BBX 2 3 0 0
BITMAP
40
C0
C0
ENDCHAR
STARTCHAR adieresis
ENCODING 228
SWIDTH 284 0
DWIDTH 2 0
BBX 2 3 0 0
BITMAP
40
C0
C0
ENDCHAR
STARTCHAR aring
ENCODING 229
SWIDTH 294 0
DWIDTH 2 0
BBX 2 3 0 0
BITMAP
40
C0
C0
ENDCHAR
STARTCHAR ae
ENCODING 230
SWIDTH 363 0
DWIDTH 3 0
BBX 3 2 0 0
BITMAP
E0
E0
ENDCHAR
STARTCHAR ccedilla
ENCODING 231
SWIDTH 203 0
DWIDTH 2 0
BBX 2 3 0 -1
BITMAP
40
80
80
ENDCHAR
STARTCHAR egrave
ENCODING 232
SWIDTH 206 0
DWIDTH 2 0
BBX 2 3 0 0
BITMAP
40
40
80
ENDCHAR
STARTCHAR eacute
ENCODING 233
SWIDTH 206 0
DWIDTH 2 0
BBX 2 3 0 0
BITMAP
40
40
80
ENDCHAR
STARTCHAR ecircumflex
ENCODING 234
SWIDTH 206 0
DWIDTH 2 0
BBX 2 3 0 0
BITMAP
40
40
80
ENDCHAR
STARTCHAR edieresis
ENCODING 235
SWIDTH 206 0
DWIDTH 2 0
BBX 2 2 0 0
BITMAP
40
80
ENDCHAR
STARTCHAR igrave
ENCODING 236
SWIDTH 149 0
DWIDTH 1 0
BBX 2 3 0 0
BITMAP
40
80
80
ENDCHAR
STARTCHAR iacute
ENCODING 237
SWIDTH 149 0
DWIDTH 1 0
BBX 2 3 0 0
BITMAP
40
80
80
ENDCHAR
STARTCHAR icircumflex
ENCODING 238
SWIDTH 149 0
DWIDTH 1 0
BBX 2 3 0 0
BITMAP
C0
80
80
ENDCHAR
STARTCHAR idieresis
ENCODING 239
SWIDTH 149 0
DWIDTH 1 0
BBX 2 3 0 0
BITMAP
40
80
80
ENDCHAR
STARTCHAR eth
ENCODING 240
SWIDTH 234 0
DWIDTH 2 0
BBX 2 5 0 0
BITMAP
80
C0
40
C0
80
ENDCHAR
STARTCHAR ntilde
ENCODING 241
SWIDTH 291 0
DWIDTH 2 0
BBX 2 3 0 0
BITMAP
40
C0
C0
ENDCHAR
STARTCHAR ograve
ENCODING 242
SWIDTH 225 0
DWIDTH 2 0
BBX 2 3 0 0
BITMAP
40
40
80
ENDCHAR
STARTCHAR oacute
ENCODING 243
SWIDTH 225 0
DWIDTH 2 0
BBX 2 3 0 0
BITMAP
40
40
80
ENDCHAR
STARTCHAR ocircumflex
ENCODING 244
SWIDTH 225 0
DWIDTH 2 0
BBX 2 3 0 0
BITMAP
40
40
80
ENDCHAR
STARTCHAR otilde
ENCODING 245
SWIDTH 225 0
DWIDTH 2 0
BBX 2 3 0 0
BITMAP
40
40
80
ENDCHAR
STARTCHAR odieresis
ENCODING 246
SWIDTH 225 0
DWIDTH 2 0
BBX 2 2 0 0
BITMAP
40
80
ENDCHAR
STARTCHAR divide
ENCODING 247
SWIDTH 301 0
DWIDTH 2 0
BBX 2 1 0 1
BITMAP
C0
ENDCHAR
STARTCHAR oslash
ENCODING 248
SWIDTH 225 0
DWIDTH 2 0
BBX 2 2 0 0
BITMAP
40
80
ENDCHAR
STARTCHAR ugrave
ENCODING 249
SWIDTH 299 0
DWIDTH 2 0
BBX 2 3 0 0
BITMAP
40
C0
C0
ENDCHAR
STARTCHAR uacute
ENCODING 250
SWIDTH 299 0
DWIDTH 2 0
BBX 2 3 0 0
BITMAP
40
C0
C0
ENDCHAR
STARTCHAR ucircumflex
ENCODING 251
SWIDTH 299 0
DWIDTH 2 0
BBX 2 3 0 0
BITMAP
40
C0
C0
ENDCHAR
STARTCHAR udieresis
ENCODING 252
SWIDTH 299 0
DWIDTH 2 0
BBX 2 3 0 0
BITMAP
40
C0
C0
ENDCHAR
STARTCHAR yacute
ENCODING 253
SWIDTH 280 0
DWIDTH 2 0
BBX 3 5 -1 -2
BITMAP
20
E0
60
40
C0
ENDCHAR
STARTCHAR thorn
ENCODING 254
SWIDTH 261 0
DWIDTH 2 0
BBX 2 6 0 -2
BITMAP
C0
80
C0
C0
80
80
ENDCHAR
STARTCHAR ydieresis
ENCODING 255
SWIDTH 280 0
DWIDTH 2 0
BBX 3 5 -1 -2
BITMAP
20
E0
60
40
C0
ENDCHAR
STARTCHAR dotlessi
ENCODING 305
SWIDTH 149 0
DWIDTH 1 0
BBX 1 2 0 0
BITMAP
80
80
ENDCHAR
STARTCHAR Lslash
ENCODING 321
SWIDTH 657 0
DWIDTH 5 0
BBX 6 5 0 0
BITMAP
1C
10
28
20
F8
ENDCHAR
STARTCHAR lslash
ENCODING 322
SWIDTH 134 0
DWIDTH 1 0
BBX 4 6 0 0
BITMAP
30
40
40
80
80
80
ENDCHAR
STARTCHAR OE
ENCODING 338
SWIDTH 827 0
DWIDTH 7 0
BBX 6 5 1 0
BITMAP
FC
90
A8
A0
FC
ENDCHAR
STARTCHAR oe
ENCODING 339
SWIDTH 345 0
DWIDTH 3 0
BBX 3 2 0 0
BITMAP
60
E0
ENDCHAR
STARTCHAR Scaron
ENCODING 352
SWIDTH 480 0
DWIDTH 4 0
BBX 4 6 0 0
BITMAP
10
70
20
20
90
E0
ENDCHAR
STARTCHAR scaron
ENCODING 353
SWIDTH 188 0
DWIDTH 2 0
BBX 2 3 0 0
BITMAP
40
80
80
ENDCHAR
STARTCHAR Ydieresis
ENCODING 376
SWIDTH 662 0
DWIDTH 5 0
BBX 7 7 0 -1
BITMAP
04
32
24
24
F8
90
E0
ENDCHAR
STARTCHAR Zcaron
ENCODING 381
SWIDTH 625 0
DWIDTH 5 0
BBX 6 6 0 0
BITMAP
18
6C
10
20
40
F8
ENDCHAR
STARTCHAR zcaron
ENCODING 382
SWIDTH 248 0
DWIDTH 2 0
BBX 2 3 0 0
BITMAP
40
C0
C0
ENDCHAR
STARTCHAR florin
ENCODING 402
SWIDTH 214 0
DWIDTH 2 0
BBX 3 4 -1 -1
BITMAP
20
40
60
80
ENDCHAR
STARTCHAR circumflex
ENCODING 710
SWIDTH 196 0
DWIDTH 2 0
BBX 1 1 0 2
BITMAP
80
ENDCHAR
STARTCHAR caron
ENCODING 711
SWIDTH 196 0
DWIDTH 2 0
BBX 1 1 0 2
BITMAP
80
ENDCHAR
STARTCHAR breve
ENCODING 728
SWIDTH 198 0
DWIDTH 2 0
BBX 1 1 0 2
BITMAP
80
ENDCHAR
STARTCHAR dotaccent
ENCODING 729
SWIDTH 89 0
DWIDTH 1 0
BBX 1 1 0 2
BITMAP
80
ENDCHAR
STARTCHAR ring
ENCODING 730
SWIDTH 117 0
DWIDTH 1 0
BBX 1 1 0 2
BITMAP
80
ENDCHAR
STARTCHAR ogonek
ENCODING 731
SWIDTH 124 0
DWIDTH 1 0
BBX 1 1 0 -1
BITMAP
80
ENDCHAR
STARTCHAR tilde
ENCODING 732
SWIDTH 222 0
DWIDTH 2 0
BBX 2 1 0 2
BITMAP
C0
ENDCHAR
STARTCHAR hungarumlaut
ENCODING 733
SWIDTH 253 0
DWIDTH 2 0
BBX 2 1 0 2
BITMAP
C0
ENDCHAR
STARTCHAR mu.dup2
ENCODING 956
SWIDTH 324 0
DWIDTH 3 0
BBX 3 3 0 -1
BITMAP
C0
C0
A0
ENDCHAR
STARTCHAR endash
ENCODING 8211
SWIDTH 500 0
DWIDTH 4 0
BBX 4 1 0 1
BITMAP
F0
ENDCHAR
STARTCHAR emdash
ENCODING 8212
SWIDTH 1000 0
DWIDTH 8 0
BBX 8 1 0 1
BITMAP
FF
ENDCHAR
STARTCHAR quoteleft
ENCODING 8216
SWIDTH 87 0
DWIDTH 1 0
BBX 1 1 0 2
BITMAP
80
ENDCHAR
STARTCHAR quoteright
ENCODING 8217
SWIDTH 87 0
DWIDTH 1 0
BBX 1 1 0 2
BITMAP
80
ENDCHAR
STARTCHAR quotesinglbase
ENCODING 8218
SWIDTH 112 0
DWIDTH 1 0
BBX 1 2 0 -1
BITMAP
80
80
ENDCHAR
STARTCHAR quotedblleft
ENCODING 8220
SWIDTH 167 0
DWIDTH 1 0
BBX 2 1 0 2
BITMAP
C0
ENDCHAR
STARTCHAR quotedblright
ENCODING 8221
SWIDTH 167 0
DWIDTH 1 0
BBX 2 1 0 2
BITMAP
C0
ENDCHAR
STARTCHAR quotedblbase
ENCODING 8222
SWIDTH 192 0
DWIDTH 2 0
BBX 1 2 0 -1
BITMAP
80
80
ENDCHAR
STARTCHAR dagger
ENCODING 8224
SWIDTH 185 0
DWIDTH 1 0
BBX 2 5 0 -1
BITMAP
C0
C0
80
80
80
ENDCHAR
STARTCHAR daggerdbl
ENCODING 8225
SWIDTH 185 0
DWIDTH 1 0
BBX 2 5 0 -1
BITMAP
C0
C0
80
80
80
ENDCHAR
STARTCHAR bullet
ENCODING 8226
SWIDTH 207 0
DWIDTH 2 0
BBX 1 1 0 1
BITMAP
80
ENDCHAR
STARTCHAR ellipsis
ENCODING 8230
SWIDTH 376 0
DWIDTH 3 0
BBX 3 1 0 0
BITMAP
E0
ENDCHAR
STARTCHAR perthousand
ENCODING 8240
SWIDTH 571 0
DWIDTH 5 0
BBX 4 4 0 -1
BITMAP
A0
B0
F0
80
ENDCHAR
STARTCHAR guilsinglleft
ENCODING 8249
SWIDTH 189 0
DWIDTH 2 0
BBX 2 2 0 0
BITMAP
C0
80
ENDCHAR
STARTCHAR guilsinglright
ENCODING 8250
SWIDTH 176 0
DWIDTH 1 0
BBX 1 2 0 0
BITMAP
80
80
ENDCHAR
STARTCHAR fraction
ENCODING 8260
SWIDTH 220 0
DWIDTH 2 0
BBX 3 3 0 0
BITMAP
60
40
80
ENDCHAR
STARTCHAR Euro
ENCODING 8364
SWIDTH 360 0
DWIDTH 3 0
BBX 2 3 0 0
BITMAP
40
C0
C0
ENDCHAR
STARTCHAR trademark
ENCODING 8482
SWIDTH 389 0
DWIDTH 3 0
BBX 3 2 0 1
BITMAP
60
E0
ENDCHAR
STARTCHAR minus
ENCODING 8722
SWIDTH 301 0
DWIDTH 2 0
BBX 2 1 0 1
BITMAP
C0
ENDCHAR
STARTCHAR fi
ENCODING 64257
SWIDTH 297 0
DWIDTH 2 0
BBX 6 8 -2 -2
BITMAP
0C
10
10
38
30
30
40
80
ENDCHAR
STARTCHAR fl
ENCODING 64258
SWIDTH 290 0
DWIDTH 2 0
BBX 7 8 -2 -2
BITMAP
06
18
18
30
30
30
40
80
ENDCHAR
STARTCHAR .notdef
ENCODING -1
SWIDTH 150 0
DWIDTH 1 0
BBX 1 1 0 0
BITMAP
00
ENDCHAR
STARTCHAR .null
ENCODING -1
SWIDTH 0 0
DWIDTH 0 0
BBX 1 1 0 0
BITMAP
00
ENDCHAR
STARTCHAR nonmarkingreturn
ENCODING -1
SWIDTH 150 0
DWIDTH 1 0
BBX 1 1 0 0
BITMAP
00
ENDCHAR
ENDFONT
